<svg width="66" height="96" viewBox="0 0 66 96" fill="none" xmlns="http://www.w3.org/2000/svg">
<path fill-rule="evenodd" clip-rule="evenodd" d="M16.7021 15.5916C16.7021 13.9912 17.3403 12.4497 18.4695 11.3108C19.6084 10.1718 21.1401 9.54343 22.7503 9.54343H27.2079C28.0523 9.54343 28.7592 9.94599 29.1913 10.5351H36.83C37.0559 10.2209 37.3602 9.97545 37.7039 9.79871C38.0475 9.62198 38.4305 9.53361 38.8134 9.54343H43.271C44.8714 9.54343 46.4129 10.1816 47.5518 11.3108C48.681 12.4497 49.3192 13.9814 49.3192 15.5916V23.3384C49.3192 24.6541 48.3962 25.5476 47.326 25.7636V31.4288C47.326 32.8918 46.7467 34.286 45.7158 35.317C44.6848 36.3479 43.2906 36.9272 41.8277 36.9272H39.6087C39.5007 36.9272 39.3927 36.9076 39.2847 36.8781C38.6661 37.4083 37.969 37.8894 37.2228 38.2821C37.3602 37.8599 37.4388 37.3985 37.4388 36.9272V35.5428C37.8413 35.2384 38.2144 34.9046 38.5581 34.5413C40.0309 33.0096 40.7967 31.2423 40.7967 30.1623C40.7967 28.1396 39.8541 26.8632 38.4599 26.0385C36.997 25.1745 35.0136 24.8112 33.099 24.8112C30.9488 24.8112 28.9556 25.2236 27.5418 26.0974C26.1966 26.932 25.3326 28.2084 25.3326 30.1721C25.3326 31.9394 26.3046 33.6773 27.8363 35.0126C28.0916 35.2286 28.3469 35.4348 28.6218 35.6213V36.9468C28.6218 37.4181 28.7003 37.8698 28.8378 38.292C28.0523 37.8992 27.3159 37.4279 26.6385 36.8781C26.5108 36.9272 26.3832 36.9468 26.2457 36.9468H24.2329C22.7798 36.9468 21.3757 36.3675 20.3448 35.3366C19.3139 34.3057 18.7346 32.9114 18.7346 31.4485V25.793C17.6545 25.5868 16.712 24.6934 16.712 23.358V15.5916H16.7021ZM36.3293 36.9272C36.3293 37.6243 36.1035 38.3018 35.7009 38.8614C35.2885 39.4211 34.7191 39.8433 34.0612 40.0593C33.4034 40.2753 32.6866 40.2851 32.0288 40.0691C31.371 39.8629 30.7917 39.4505 30.3695 38.8909C29.9473 38.3214 29.7116 37.6341 29.7116 36.9272V34.6689C29.5447 34.6984 29.3778 34.7082 29.2011 34.7082C29.0538 34.7082 28.9163 34.6493 28.8083 34.5511C28.7003 34.4431 28.6512 34.3057 28.6512 34.1584C28.6512 34.0111 28.7102 33.8736 28.8083 33.7656C28.9065 33.6576 29.0538 33.6085 29.2011 33.6085C29.6233 33.6085 30.1044 33.4907 30.5658 33.2354L31.3906 32.6267C31.9699 32.0474 32.4019 31.203 32.4608 30.0641C32.4608 29.9757 32.4608 29.8873 32.4608 29.799C32.4608 29.6517 32.5197 29.5142 32.6179 29.4062C32.7161 29.2982 32.8634 29.2491 33.0107 29.2491H33.0205C33.1677 29.2491 33.3052 29.308 33.4132 29.4062C33.5114 29.5044 33.5703 29.6517 33.5703 29.799C33.5703 29.8873 33.5703 29.9757 33.5605 30.0641C33.6194 31.1736 34.0318 32.0081 34.5914 32.5874L35.4849 33.2551C35.9366 33.4907 36.4079 33.5987 36.8104 33.5987C36.9577 33.5987 37.0951 33.6576 37.2031 33.7558C37.3013 33.854 37.3602 34.0013 37.3602 34.1486C37.3602 34.2958 37.3013 34.4333 37.2031 34.5413C37.0951 34.6395 36.9577 34.6984 36.8104 34.6984C36.6533 34.6984 36.4864 34.6886 36.3195 34.6591L36.3293 36.9272ZM29.2207 13.4414C29.3778 13.2155 29.4956 12.9799 29.5742 12.7344H36.4373C36.5159 12.9799 36.6239 13.2155 36.7908 13.4414L44.8125 24.7621C44.9107 24.8897 45.0088 25.0075 45.1168 25.1156V31.4288C45.1168 32.3027 44.7732 33.1471 44.1546 33.7656C43.5361 34.3842 42.7015 34.7278 41.8178 34.7278H41.2484C42.3186 33.2354 42.9862 31.5761 42.9862 30.1623C42.9862 27.2658 41.5527 25.3119 39.5694 24.1435C37.645 23.0046 35.2296 22.602 33.0892 22.602C30.7131 22.602 28.2683 23.0439 26.3734 24.2221C24.4195 25.4199 23.1234 27.3836 23.1234 30.1524C23.1234 31.8314 23.7125 33.3925 24.6453 34.718H24.2231C23.3493 34.718 22.5049 34.3744 21.8863 33.7558C21.2677 33.1373 20.9241 32.3027 20.9241 31.419V25.0763C21.0223 24.9781 21.1106 24.8701 21.1892 24.7621L29.2207 13.4414ZM29.7215 18.2328C29.4269 18.2328 29.152 18.3506 28.9458 18.5568C28.7396 18.763 28.6218 19.0379 28.6218 19.3325V20.4321C28.6218 20.7267 28.7396 21.0016 28.9458 21.2078C29.152 21.414 29.4269 21.5318 29.7215 21.5318C30.016 21.5318 30.2909 21.414 30.4971 21.2078C30.7033 21.0016 30.8211 20.7267 30.8211 20.4321V19.3325C30.8211 19.0379 30.7033 18.763 30.4971 18.5568C30.2909 18.3506 30.016 18.2328 29.7215 18.2328ZM36.3195 18.2328C36.0249 18.2328 35.75 18.3506 35.5438 18.5568C35.3376 18.763 35.2198 19.0379 35.2198 19.3325V20.4321C35.2198 20.7267 35.3376 21.0016 35.5438 21.2078C35.75 21.414 36.0249 21.5318 36.3195 21.5318C36.614 21.5318 36.889 21.414 37.0951 21.2078C37.3013 21.0016 37.4192 20.7267 37.4192 20.4321V19.3325C37.4192 19.0379 37.3013 18.763 37.0951 18.5568C36.889 18.3506 36.6042 18.2328 36.3195 18.2328ZM34.2772 25.9305H31.7342C31.096 25.9305 30.4971 26.824 31.0371 27.5505C31.4004 28.0415 32.3234 29.0233 33.0597 29.0233C33.806 29.0233 34.67 28.0415 35.0136 27.5505C35.6027 26.6178 34.8074 25.9403 34.2772 25.9305Z" fill="#007BFF"/>
<path d="M15.5142 4.10397C8.45466 5.82221 -2.13948 7.54044 1.8861 16.0629C5.26366 23.2304 14.3948 52.2342 33.158 52.2342C51.6953 52.2342 61.3959 21.2961 64.4298 16.0433C67.4441 10.8198 57.8613 5.83203 50.8018 4.10397" stroke="#6C757D" stroke-width="2" stroke-miterlimit="10" stroke-linecap="round"/>
<path d="M54.2678 2.6901C56.2511 3.83887 57.5079 4.55561 56.4672 6.3524C55.4264 8.14918 54.1794 7.43243 52.1961 6.28367C50.2128 5.13491 48.6025 4.21197 49.6335 2.40537C50.6644 0.608584 52.2747 1.54134 54.2678 2.6901Z" fill="#6C757D" stroke="#6C757D" stroke-miterlimit="10" stroke-linecap="round"/>
<path d="M51.9897 69.4263C43.3986 59.1169 43.3986 83.182 34.7976 90.055C14.6599 106.157 -1.30501 74.581 22.7601 71.1446C32.9713 69.6816 33.0695 52.2342 33.0695 52.2342" stroke="#6C757D" stroke-width="2" stroke-miterlimit="10"/>
<path d="M55.4262 78.0175C58.2735 78.0175 60.5809 75.7102 60.5809 72.8628C60.5809 70.0154 58.2735 67.7081 55.4262 67.7081C52.5788 67.7081 50.2715 70.0154 50.2715 72.8628C50.2715 75.7102 52.5788 78.0175 55.4262 78.0175Z" stroke="#6C757D" stroke-miterlimit="10"/>
<path d="M13.6486 2.34646C15.5534 1.64935 16.761 1.21733 17.3894 2.94539C18.0178 4.67344 16.82 5.11527 14.9053 5.80256C12.9907 6.48986 11.4492 7.05933 10.8209 5.33128C10.1925 3.60322 11.7438 3.04357 13.6486 2.34646Z" fill="#6C757D" stroke="#6C757D" stroke-miterlimit="10" stroke-linecap="round"/>
</svg>
