<?xml version="1.0" standalone="no"?>
<!DOCTYPE svg PUBLIC "-//W3C//DTD SVG 20010904//EN"
 "http://www.w3.org/TR/2001/REC-SVG-20010904/DTD/svg10.dtd">
<svg version="1.0" xmlns="http://www.w3.org/2000/svg"
 width="500.000000pt" height="500.000000pt" viewBox="0 0 500.000000 500.000000"
 preserveAspectRatio="xMidYMid meet">

<g transform="translate(0.000000,500.000000) scale(0.100000,-0.100000)"
fill="#000000" stroke="none">
<path d="M3065 4366 c-86 -25 -182 -70 -255 -119 -129 -89 -273 -282 -315
-422 l-12 -39 51 -44 c28 -24 85 -60 125 -80 70 -34 81 -37 165 -37 77 0 99 4
146 26 116 55 239 185 297 316 15 34 30 62 33 62 3 0 25 -32 50 -71 25 -40 86
-113 135 -163 149 -152 313 -244 468 -264 65 -8 89 -6 154 10 163 41 236 122
250 279 l6 65 -40 -42 c-42 -46 -95 -73 -140 -73 -46 0 -125 44 -173 96 -25
27 -65 86 -89 132 -108 202 -264 327 -471 378 -91 22 -290 17 -385 -10z"/>
<path d="M1179 3675 c-26 -14 -65 -63 -57 -71 3 -2 15 7 28 21 27 29 64 32
115 11 42 -18 48 -2 12 32 -27 25 -60 27 -98 7z"/>
<path d="M596 3609 c-14 -11 -31 -30 -38 -42 -10 -21 -10 -21 8 -5 38 33 67
38 113 17 24 -10 45 -19 47 -19 12 0 1 24 -21 45 -30 31 -73 32 -109 4z"/>
<path d="M1435 3545 c-34 -66 -111 -154 -171 -196 -59 -40 -116 -60 -194 -68
l-65 -6 51 -32 c190 -122 362 -68 424 135 24 76 25 140 6 187 -8 19 -17 35
-19 35 -3 0 -17 -25 -32 -55z"/>
<path d="M3716 3453 c-22 -7 -45 -12 -52 -9 -8 3 -7 -4 3 -25 13 -25 20 -29
57 -29 29 0 52 7 70 21 30 23 35 45 9 34 -10 -4 -27 -10 -38 -12 -16 -5 -18
-3 -7 8 13 14 16 30 5 28 -5 -1 -26 -8 -47 -16z"/>
<path d="M2925 3418 c6 -15 4 -20 -6 -16 -8 3 -25 9 -39 13 -23 7 -24 7 -10
-11 27 -35 45 -43 87 -44 32 0 45 5 57 22 22 31 20 35 -13 36 -17 0 -39 5 -50
11 -28 16 -33 14 -26 -11z"/>
<path d="M2425 3389 c-146 -78 -313 -263 -364 -404 -20 -55 -22 -76 -18 -215
2 -85 9 -218 17 -296 11 -117 12 -148 0 -188 -17 -62 -59 -104 -113 -113 -35
-5 -38 -7 -19 -14 44 -17 240 -31 332 -25 299 20 455 136 496 369 17 96 6 237
-27 364 -11 43 -22 83 -23 90 -1 7 -28 47 -61 90 -69 92 -118 194 -142 292 -9
39 -22 71 -28 71 -5 0 -28 -10 -50 -21z"/>
<path d="M3560 3370 c-11 -11 -20 -28 -20 -38 0 -41 69 -69 98 -40 20 20 14
65 -10 82 -30 21 -44 20 -68 -4z"/>
<path d="M3050 3340 c-24 -24 -25 -38 -4 -68 28 -41 94 -22 94 28 0 55 -52 78
-90 40z"/>
<path d="M2906 3167 c3 -10 9 -15 12 -12 3 3 0 11 -7 18 -10 9 -11 8 -5 -6z"/>
<path d="M2930 3121 c5 -11 15 -23 21 -27 6 -3 3 5 -6 20 -20 30 -30 35 -15 7z"/>
<path d="M1002 3110 c-54 -24 -162 -100 -162 -113 0 -15 -142 -157 -152 -151
-5 3 -7 2 -6 -3 4 -13 -98 -104 -107 -95 -5 4 -5 2 -2 -4 4 -6 0 -20 -8 -30
-8 -10 -15 -27 -15 -37 0 -10 -4 -16 -8 -13 -5 3 -4 -27 0 -67 5 -39 7 -96 5
-127 -3 -49 -3 -47 -5 20 -3 93 -17 122 -25 51 -10 -83 -76 -266 -149 -409
-104 -204 -125 -301 -82 -384 16 -32 64 -59 109 -63 23 -2 30 -7 28 -23 -2
-17 7 -22 65 -32 98 -17 256 -27 340 -22 55 3 77 1 90 -11 39 -34 103 -26 150
20 70 66 73 209 12 451 -13 52 -16 80 -9 95 9 21 9 21 5 -1 -2 -13 3 -47 11
-75 13 -43 17 -48 24 -32 4 11 8 42 8 68 1 29 5 46 11 42 5 -3 7 0 4 9 -10 27
34 95 76 116 22 11 40 23 40 26 0 3 -4 2 -10 -1 -6 -3 -7 1 -4 9 3 9 9 14 13
12 4 -3 8 4 8 15 2 28 -52 54 -84 40 -26 -12 -34 -27 -64 -129 -12 -40 -23
-71 -25 -69 -2 2 7 42 21 88 18 59 33 91 52 108 16 13 28 27 28 30 0 9 19 1
26 -11 4 -6 16 -7 27 -4 11 4 23 2 27 -4 3 -5 19 -9 35 -8 16 1 26 6 24 10 -3
4 2 8 10 8 21 0 65 58 108 142 69 138 95 193 118 252 l24 60 -57 51 c-31 29
-86 67 -122 85 l-66 33 -77 -26 c-42 -15 -84 -27 -93 -27 -11 0 -24 21 -38 60
-35 95 -53 105 -129 70z m-7 -251 c55 -27 72 -30 127 -27 l63 3 3 -57 c4 -75
-11 -107 -96 -205 -38 -44 -76 -97 -83 -117 -9 -24 -16 -32 -21 -23 -10 16
-10 30 0 23 5 -3 16 9 24 27 9 18 44 64 78 102 74 83 90 116 90 188 l0 53 -63
-4 c-54 -3 -72 0 -116 23 -56 28 -136 95 -153 129 -5 12 11 -2 36 -31 30 -33
70 -63 111 -84z m-264 -114 c11 -60 -25 -115 -77 -115 -60 0 -74 71 -24 121
23 24 37 30 62 27 28 -2 34 -8 39 -33z m85 -36 c-30 -23 -35 -66 -9 -76 24 -9
56 34 50 70 -3 24 -2 26 10 14 20 -20 7 -84 -23 -114 -42 -42 -104 -19 -104
39 0 36 48 88 81 88 21 0 21 -1 -5 -21z m64 -162 c0 -2 -17 -19 -37 -38 l-38
-34 34 38 c33 34 41 42 41 34z m99 -66 c0 -14 -1 -14 -6 -1 -3 8 -10 24 -15
35 -9 20 -9 20 6 1 9 -11 16 -27 15 -35z m-182 -53 c-3 -8 -6 -5 -6 6 -1 11 2
17 5 13 3 -3 4 -12 1 -19z m-7 -68 c0 -40 0 -40 -37 -38 -37 1 -37 1 -5 5 29
4 32 7 32 39 0 19 2 34 5 34 3 0 5 -18 5 -40z m-104 -94 c26 -9 60 -16 76 -16
20 0 28 -5 28 -18 0 -16 -9 -16 -107 -11 -60 4 -121 10 -137 14 -27 7 -28 10
-22 53 3 25 6 56 6 69 0 23 3 22 55 -25 31 -29 74 -57 101 -66z m-3 -82 l107
-7 0 -38 0 -39 -82 0 c-77 0 -195 14 -205 24 -2 2 -1 21 3 41 6 35 8 37 38 31
17 -3 79 -9 139 -12z m-5 -120 l122 -7 0 -39 0 -40 -97 7 c-126 8 -243 25
-243 36 0 4 5 20 12 34 11 24 16 26 47 21 20 -3 91 -8 159 -12z m-129 -104
c36 -5 108 -10 159 -10 99 0 96 2 106 -58 4 -25 2 -34 -11 -39 -20 -8 -246 13
-315 29 -47 11 -48 13 -48 48 0 41 7 53 28 45 8 -3 45 -10 81 -15z m71 -135
c63 -8 136 -15 161 -15 42 0 48 -3 53 -26 4 -15 4 -29 1 -33 -10 -9 -219 -3
-288 9 -124 21 -117 18 -117 57 l0 36 38 -7 c20 -4 89 -13 152 -21z m-90 -100
c47 -8 138 -15 203 -15 116 0 118 0 129 -25 6 -14 8 -28 4 -33 -12 -11 -242
-6 -326 7 -109 18 -110 18 -110 52 0 34 -7 33 100 14z"/>
<path d="M667 2752 c-22 -24 -22 -61 0 -69 21 -8 53 30 53 63 0 29 -29 33 -53
6z"/>
<path d="M3724 3058 l-29 -33 33 29 c30 28 37 36 29 36 -2 0 -16 -15 -33 -32z"/>
<path d="M2980 3055 c13 -14 26 -25 28 -25 3 0 -5 11 -18 25 -13 14 -26 25
-28 25 -3 0 5 -11 18 -25z"/>
<path d="M3020 3026 c0 -2 8 -10 18 -17 15 -13 16 -12 3 4 -13 16 -21 21 -21
13z"/>
<path d="M3669 3013 c-13 -16 -12 -17 4 -4 16 13 21 21 13 21 -2 0 -10 -8 -17
-17z"/>
<path d="M3104 2966 c11 -9 24 -16 30 -16 12 0 7 5 -24 19 -24 11 -24 11 -6
-3z"/>
<path d="M3580 2960 c-9 -6 -10 -10 -3 -10 6 0 15 5 18 10 8 12 4 12 -15 0z"/>
<path d="M3448 2913 c6 -2 18 -2 25 0 6 3 1 5 -13 5 -14 0 -19 -2 -12 -5z"/>
<path d="M3323 2903 c20 -2 54 -2 75 0 20 2 3 4 -38 4 -41 0 -58 -2 -37 -4z"/>
<path d="M2879 2794 c-13 -35 5 -54 74 -85 36 -15 79 -24 137 -27 l85 -4 48
-52 c49 -51 53 -47 10 10 -13 17 -23 33 -23 36 0 3 19 8 43 11 69 10 160 33
197 51 l35 16 -35 -5 c-181 -27 -342 -12 -482 46 -39 16 -72 29 -75 29 -2 0
-8 -12 -14 -26z"/>
<path d="M2846 2664 c-21 -54 185 -143 265 -115 23 8 39 6 77 -10 l47 -19 -28
21 c-19 15 -26 27 -22 40 5 16 1 19 -25 19 -17 0 -47 7 -67 15 -42 18 -46 18
-37 4 15 -25 -114 13 -197 58 -4 2 -9 -4 -13 -13z"/>
<path d="M3443 2626 c12 -18 24 -32 25 -31 9 8 -11 46 -28 55 -17 9 -17 7 3
-24z"/>
<path d="M3310 2524 c0 -20 54 -74 74 -74 25 0 19 29 -13 61 -32 32 -61 38
-61 13z"/>
<path d="M3586 2479 c12 -13 26 -33 32 -44 6 -11 12 -14 12 -7 0 22 -19 51
-43 63 l-22 12 21 -24z"/>
<path d="M3311 2454 c-12 -9 -31 -14 -42 -11 -10 3 -19 1 -19 -3 0 -12 38 -23
51 -14 8 5 10 -1 7 -21 -7 -33 8 -81 27 -89 10 -3 9 2 -3 24 -14 25 -15 35 -4
76 7 26 11 48 9 50 -2 2 -13 -4 -26 -12z"/>
<path d="M3530 2321 c18 -11 120 -42 120 -36 0 7 -64 32 -101 39 -23 5 -29 4
-19 -3z"/>
<path d="M2912 2262 c8 -32 14 -39 29 -35 19 5 19 6 0 37 -29 45 -41 44 -29
-2z"/>
<path d="M3515 2261 c22 -23 49 -47 60 -53 27 -15 -30 47 -70 75 -26 17 -24
14 10 -22z"/>
<path d="M2961 2161 c-11 -7 -10 -15 9 -46 18 -29 27 -35 44 -31 11 3 24 6 29
6 14 0 7 19 -19 49 -27 32 -40 37 -63 22z"/>
<path d="M3708 2068 c-13 -13 -15 -16 -4 -8 17 13 19 13 11 0 -14 -26 -79 -90
-91 -90 -6 0 -26 -21 -44 -47 -19 -27 -65 -78 -103 -116 -39 -37 -68 -69 -66
-71 7 -7 128 48 196 88 78 46 183 142 183 167 0 29 -13 23 -48 -20 -29 -36
-192 -154 -201 -146 -7 8 70 104 88 110 32 10 132 122 125 139 -8 22 -19 20
-46 -6z"/>
<path d="M3071 2034 c-32 -14 -33 -16 -16 -34 10 -11 25 -20 34 -20 26 0 91
20 91 28 0 8 -58 42 -68 41 -4 0 -22 -7 -41 -15z"/>
<path d="M3221 1953 l-63 -33 47 -20 c60 -26 108 -19 134 19 35 51 34 59 -13
63 -33 2 -57 -4 -105 -29z"/>
<path d="M3750 1871 c-70 -70 -151 -122 -259 -167 -80 -34 -77 -32 -64 -45 14
-14 129 34 226 95 78 48 192 159 182 176 -10 16 -16 11 -85 -59z"/>
<path d="M3836 1836 c-78 -95 -251 -199 -419 -251 -82 -26 -99 -36 -78 -50 27
-16 278 88 381 158 59 40 170 147 170 163 0 29 -20 21 -54 -20z"/>
<path d="M3860 1721 c-67 -68 -104 -96 -175 -133 -49 -26 -118 -54 -153 -64
-54 -15 -61 -20 -49 -31 29 -29 226 58 345 152 65 52 142 137 142 157 0 22
-32 -2 -110 -81z"/>
<path d="M3994 1724 c-101 -119 -302 -263 -409 -295 -47 -14 -56 -25 -30 -36
36 -13 212 82 328 178 69 57 187 184 187 201 0 23 -33 2 -76 -48z"/>
<path d="M4096 1716 c-32 -50 -143 -160 -224 -224 -86 -67 -238 -152 -272
-152 -21 0 -34 -15 -25 -29 3 -6 27 -2 58 8 128 44 228 112 368 248 82 80 108
112 112 136 6 41 3 43 -17 13z"/>
<path d="M4045 1514 c-123 -123 -319 -244 -421 -260 -28 -4 -44 -11 -44 -20 0
-30 108 -2 218 57 141 75 327 236 320 275 -2 15 -17 5 -73 -52z"/>
<path d="M400 1561 c0 -22 35 -32 185 -52 108 -14 333 -6 418 15 67 17 75 22
60 37 -9 9 -38 7 -110 -6 -115 -21 -364 -16 -473 9 -83 19 -80 19 -80 -3z"/>
<path d="M86 1543 c-118 -62 -92 -446 41 -593 51 -57 107 -81 228 -99 43 -6
83 -17 88 -24 4 -6 6 -44 4 -84 -4 -66 -7 -75 -40 -113 -21 -22 -37 -44 -37
-49 0 -15 30 -41 55 -47 60 -15 97 49 123 212 13 85 20 108 34 112 10 2 18 8
18 12 0 4 11 11 25 14 13 3 49 26 80 51 30 25 59 45 63 45 18 0 44 -40 39 -60
-3 -12 -1 -18 5 -14 8 5 9 -22 4 -87 -11 -156 -9 -278 4 -294 22 -27 65 -18
99 20 17 20 31 39 31 43 0 4 -14 20 -31 35 -31 27 -32 29 -26 98 4 43 23 120
51 202 41 122 56 182 70 279 4 36 3 38 -32 48 -69 19 -66 26 18 44 73 15 94
29 74 48 -3 3 -33 -1 -67 -10 -92 -23 -440 -19 -557 7 -88 20 -100 19 -100 -4
0 -9 21 -18 60 -26 58 -11 59 -12 53 -41 -3 -17 -1 -33 5 -37 6 -3 12 -39 14
-78 2 -39 6 -69 11 -66 14 8 7 -73 -9 -95 -12 -17 -25 -22 -60 -22 -32 0 -43
3 -38 12 4 6 3 8 -4 5 -15 -10 -43 3 -35 16 4 6 1 7 -6 3 -18 -12 -85 63 -99
110 -14 50 -35 272 -26 286 4 7 2 8 -4 4 -8 -5 -12 2 -12 19 0 33 -26 95 -39
95 -6 0 -8 6 -5 14 8 20 -38 26 -70 9z m1 -205 c-3 -8 -6 -5 -6 6 -1 11 2 17
5 13 3 -3 4 -12 1 -19z m641 -75 c-10 -2 -28 -2 -40 0 -13 2 -5 4 17 4 22 1
32 -1 23 -4z m-161 -19 c-3 -3 -12 -4 -19 -1 -8 3 -5 6 6 6 11 1 17 -2 13 -5z
m-480 -76 c-3 -8 -6 -5 -6 6 -1 11 2 17 5 13 3 -3 4 -12 1 -19z m880 0 c-3 -8
-6 -5 -6 6 -1 11 2 17 5 13 3 -3 4 -12 1 -19z m-12 -78 c-4 -17 -9 -30 -11
-27 -2 2 -1 18 2 36 4 17 9 30 11 27 3 -2 2 -19 -2 -36z m-670 -198 c-3 -3
-11 0 -18 7 -9 10 -8 11 6 5 10 -3 15 -9 12 -12z m238 -29 c-18 -2 -48 -2 -65
0 -18 2 -4 4 32 4 36 0 50 -2 33 -4z"/>
<path d="M4055 1408 c-44 -45 -110 -102 -147 -128 -64 -45 -74 -60 -38 -60 34
0 280 219 280 249 0 26 -21 13 -95 -61z"/>
<path d="M1603 1465 c1 -5 -5 -10 -13 -9 -8 0 -86 4 -173 8 l-157 7 -25 -25
c-56 -56 -11 -166 77 -185 124 -28 394 46 454 124 l23 30 -94 30 c-51 17 -93
26 -92 20z"/>
<path d="M370 1453 c0 -25 37 -36 190 -59 128 -18 329 -15 435 9 48 10 61 17
63 33 3 20 2 21 -60 7 -114 -26 -326 -28 -469 -4 -69 11 -133 23 -142 27 -12
4 -17 1 -17 -13z"/>
<path d="M4120 1350 c-25 -29 -71 -73 -102 -96 -47 -34 -54 -43 -38 -47 40
-10 194 132 188 174 -3 21 -7 18 -48 -31z"/>
<path d="M3250 1358 c-18 -13 -42 -40 -53 -62 -19 -35 -19 -45 -9 -140 6 -55
16 -114 21 -131 6 -16 13 -46 16 -66 3 -21 15 -49 26 -64 18 -22 28 -26 62
-23 35 3 42 7 48 30 4 17 1 47 -9 77 -14 46 -14 58 1 139 8 49 14 98 12 108
-2 11 -4 36 -4 57 -1 29 -9 46 -30 68 -35 35 -39 35 -81 7z"/>
<path d="M4145 1240 c-43 -44 -46 -50 -27 -50 12 0 39 15 59 33 28 26 34 37
27 50 -8 15 -17 10 -59 -33z"/>
<path d="M1593 1150 c-80 -19 -84 -63 -13 -131 92 -90 237 -111 400 -59 69 22
107 43 127 69 9 13 -1 20 -75 49 -94 35 -141 47 -242 61 -114 16 -164 19 -197
11z"/>
<path d="M3640 1146 c-40 -11 -42 -13 -22 -20 21 -7 72 14 72 29 0 3 -1 5 -2
4 -2 -1 -23 -6 -48 -13z"/>
</g>
</svg>
