<svg width="54" height="77" viewBox="0 0 54 77" fill="none" xmlns="http://www.w3.org/2000/svg">
<path fill-rule="evenodd" clip-rule="evenodd" d="M14.0127 12.7761C14.0127 11.5008 14.5213 10.2724 15.421 9.36477C16.3286 8.45717 17.5492 7.95643 18.8324 7.95643H22.3845C23.0574 7.95643 23.6207 8.27722 23.965 8.74666H30.0521C30.2321 8.49629 30.4746 8.30069 30.7485 8.15986C31.0223 8.01902 31.3275 7.9486 31.6326 7.95643H35.1848C36.4601 7.95643 37.6885 8.465 38.5961 9.36477C39.4958 10.2724 40.0044 11.4929 40.0044 12.7761V18.9493C40.0044 19.9977 39.2689 20.7097 38.4161 20.8819V25.3964C38.4161 26.5622 37.9545 27.6732 37.133 28.4947C36.3114 29.3163 35.2004 29.7779 34.0346 29.7779H32.2664C32.1803 29.7779 32.0942 29.7622 32.0082 29.7388C31.5152 30.1613 30.9597 30.5446 30.3651 30.8576C30.4746 30.5212 30.5372 30.1534 30.5372 29.7779V28.6747C30.858 28.4321 31.1553 28.1661 31.4292 27.8766C32.6028 26.6561 33.2131 25.2477 33.2131 24.3871C33.2131 22.7753 32.462 21.7582 31.3509 21.1009C30.1851 20.4124 28.6047 20.1229 27.079 20.1229C25.3655 20.1229 23.7772 20.4515 22.6505 21.1479C21.5786 21.8129 20.8901 22.8301 20.8901 24.3949C20.8901 25.8032 21.6647 27.1881 22.8852 28.2522C23.0887 28.4243 23.2921 28.5886 23.5112 28.7373V29.7935C23.5112 30.1691 23.5738 30.529 23.6833 30.8654C23.0574 30.5525 22.4706 30.1769 21.9307 29.7388C21.829 29.7779 21.7273 29.7935 21.6177 29.7935H20.0138C18.8558 29.7935 17.737 29.3319 16.9154 28.5104C16.0939 27.6888 15.6323 26.5778 15.6323 25.412V20.9053C14.7716 20.741 14.0205 20.029 14.0205 18.965V12.7761H14.0127ZM29.6531 29.7779C29.6531 30.3334 29.4731 30.8733 29.1524 31.3192C28.8237 31.7652 28.3699 32.1016 27.8457 32.2738C27.3215 32.4459 26.7504 32.4537 26.2261 32.2816C25.7019 32.1173 25.2403 31.7887 24.9039 31.3427C24.5674 30.8889 24.3796 30.3412 24.3796 29.7779V27.9783C24.2466 28.0018 24.1136 28.0096 23.9728 28.0096C23.8554 28.0096 23.7459 27.9627 23.6598 27.8844C23.5738 27.7984 23.5346 27.6888 23.5346 27.5715C23.5346 27.4541 23.5816 27.3446 23.6598 27.2585C23.7381 27.1725 23.8554 27.1333 23.9728 27.1333C24.3092 27.1333 24.6926 27.0394 25.0603 26.836L25.7176 26.3509C26.1792 25.8893 26.5235 25.2164 26.5704 24.3088C26.5704 24.2384 26.5704 24.168 26.5704 24.0976C26.5704 23.9802 26.6173 23.8707 26.6956 23.7846C26.7738 23.6985 26.8912 23.6594 27.0085 23.6594H27.0164C27.1337 23.6594 27.2433 23.7064 27.3293 23.7846C27.4076 23.8629 27.4545 23.9802 27.4545 24.0976C27.4545 24.168 27.4545 24.2384 27.4467 24.3088C27.4936 25.193 27.8223 25.858 28.2682 26.3196L28.9802 26.8517C29.3401 27.0394 29.7157 27.1255 30.0365 27.1255C30.1538 27.1255 30.2634 27.1725 30.3494 27.2507C30.4277 27.3289 30.4746 27.4463 30.4746 27.5637C30.4746 27.681 30.4277 27.7906 30.3494 27.8766C30.2634 27.9549 30.1538 28.0018 30.0365 28.0018C29.9113 28.0018 29.7783 27.994 29.6453 27.9705L29.6531 29.7779ZM23.9884 11.0626C24.1136 10.8826 24.2075 10.6949 24.2701 10.4993H29.7392C29.8018 10.6949 29.8878 10.8826 30.0208 11.0626L36.4131 20.0838C36.4914 20.1855 36.5696 20.2794 36.6557 20.3655V25.3964C36.6557 26.0927 36.3818 26.7656 35.8889 27.2585C35.396 27.7514 34.731 28.0253 34.0268 28.0253H33.573C34.4258 26.836 34.9579 25.5137 34.9579 24.3871C34.9579 22.079 33.8155 20.522 32.2351 19.5909C30.7015 18.6833 28.7768 18.3625 27.0711 18.3625C25.1777 18.3625 23.2295 18.7146 21.7194 19.6535C20.1624 20.608 19.1297 22.1728 19.1297 24.3792C19.1297 25.7172 19.5991 26.9612 20.3424 28.0175H20.006C19.3096 28.0175 18.6367 27.7436 18.1438 27.2507C17.6509 26.7578 17.3771 26.0927 17.3771 25.3886V20.3342C17.4553 20.2559 17.5257 20.1699 17.5883 20.0838L23.9884 11.0626ZM24.3875 14.8808C24.1527 14.8808 23.9337 14.9747 23.7694 15.139C23.6051 15.3033 23.5112 15.5223 23.5112 15.7571V16.6334C23.5112 16.8681 23.6051 17.0872 23.7694 17.2515C23.9337 17.4158 24.1527 17.5097 24.3875 17.5097C24.6222 17.5097 24.8413 17.4158 25.0056 17.2515C25.1699 17.0872 25.2638 16.8681 25.2638 16.6334V15.7571C25.2638 15.5223 25.1699 15.3033 25.0056 15.139C24.8413 14.9747 24.6222 14.8808 24.3875 14.8808ZM29.6453 14.8808C29.4106 14.8808 29.1915 14.9747 29.0272 15.139C28.8629 15.3033 28.769 15.5223 28.769 15.7571V16.6334C28.769 16.8681 28.8629 17.0872 29.0272 17.2515C29.1915 17.4158 29.4106 17.5097 29.6453 17.5097C29.88 17.5097 30.0991 17.4158 30.2634 17.2515C30.4277 17.0872 30.5216 16.8681 30.5216 16.6334V15.7571C30.5216 15.5223 30.4277 15.3033 30.2634 15.139C30.0991 14.9747 29.8722 14.8808 29.6453 14.8808ZM28.0179 21.0149H25.9914C25.4828 21.0149 25.0056 21.7269 25.4359 22.3059C25.7254 22.6971 26.4609 23.4795 27.0477 23.4795C27.6423 23.4795 28.3308 22.6971 28.6047 22.3059C29.0741 21.5626 28.4404 21.0227 28.0179 21.0149Z" fill="#F8F9FA"/>
<path d="M13.066 3.62192C7.44044 4.99114 -1.00178 6.36036 2.20611 13.1517C4.8976 18.8633 12.174 41.9757 27.1259 41.9757C41.8978 41.9757 49.6281 17.3219 52.0457 13.136C54.4477 8.97361 46.8114 4.99896 41.1859 3.62192" stroke="#F8F9FA" stroke-width="2" stroke-miterlimit="10" stroke-linecap="round"/>
<path d="M43.9477 2.49524C45.5282 3.41066 46.5297 3.98182 45.7003 5.41363C44.871 6.84545 43.8773 6.27429 42.2969 5.35887C40.7164 4.44344 39.4332 3.70798 40.2548 2.26834C41.0763 0.836527 42.3595 1.57982 43.9477 2.49524Z" fill="#F8F9FA" stroke="#F8F9FA" stroke-miterlimit="10" stroke-linecap="round"/>
<path d="M42.1324 55.6757C35.2863 47.4604 35.2863 66.6373 28.4324 72.1142C12.3851 84.9458 -0.336874 59.7834 18.84 57.045C26.9771 55.8792 27.0554 41.9757 27.0554 41.9757" stroke="#F8F9FA" stroke-width="2" stroke-miterlimit="10"/>
<path d="M44.8708 62.5218C47.1398 62.5218 48.9785 60.6832 48.9785 58.4142C48.9785 56.1452 47.1398 54.3065 44.8708 54.3065C42.6019 54.3065 40.7632 56.1452 40.7632 58.4142C40.7632 60.6832 42.6019 62.5218 44.8708 62.5218Z" stroke="#F8F9FA" stroke-miterlimit="10"/>
<path d="M11.5793 2.22141C13.0972 1.66589 14.0596 1.32163 14.5603 2.69868C15.061 4.07572 14.1065 4.42781 12.5808 4.97549C11.0551 5.52318 9.82671 5.97698 9.32597 4.59994C8.82522 3.22289 10.0614 2.77692 11.5793 2.22141Z" fill="#F8F9FA" stroke="#F8F9FA" stroke-miterlimit="10" stroke-linecap="round"/>
</svg>
